<mxfile host="65bd71144e">
    <diagram id="HSDNGvXQu_1ZD_8zdDF7" name="Page-1">
        <mxGraphModel dx="3282" dy="1392" grid="1" gridSize="10" guides="1" tooltips="1" connect="1" arrows="1" fold="1" page="1" pageScale="1" pageWidth="850" pageHeight="1100" math="0" shadow="0">
            <root>
                <mxCell id="0"/>
                <mxCell id="1" parent="0"/>
                <mxCell id="2" value="transaksi" style="swimlane;childLayout=stackLayout;horizontal=1;startSize=30;horizontalStack=0;rounded=1;fontSize=14;fontStyle=0;strokeWidth=2;resizeParent=0;resizeLast=1;shadow=0;dashed=0;align=center;fontFamily=Helvetica;fontColor=default;" vertex="1" parent="1">
                    <mxGeometry x="650" y="180" width="160" height="150" as="geometry"/>
                </mxCell>
                <mxCell id="3" value="# id_transaksi&#10;* id_kasir&#10;* id_pelanggan&#10;* jumlah_item&#10;* tgl_transaksi&#10;* total_harga" style="align=left;strokeColor=none;fillColor=none;spacingLeft=4;fontSize=12;verticalAlign=top;resizable=0;rotatable=0;part=1;fontFamily=Helvetica;fontColor=default;rounded=1;" vertex="1" parent="2">
                    <mxGeometry y="30" width="160" height="120" as="geometry"/>
                </mxCell>
                <mxCell id="4" value="SKEMA DATABASE" style="text;html=1;align=center;verticalAlign=middle;resizable=0;points=[];autosize=1;strokeColor=none;fillColor=none;" vertex="1" parent="1">
                    <mxGeometry x="435" y="110" width="130" height="30" as="geometry"/>
                </mxCell>
                <mxCell id="5" value="Supplier" style="swimlane;childLayout=stackLayout;horizontal=1;startSize=30;horizontalStack=0;rounded=1;fontSize=14;fontStyle=0;strokeWidth=2;resizeParent=0;resizeLast=1;shadow=0;dashed=0;align=center;fontFamily=Helvetica;fontColor=default;" vertex="1" parent="1">
                    <mxGeometry x="-170" y="180" width="160" height="100" as="geometry"/>
                </mxCell>
                <mxCell id="6" value="# id_supplier&#10;* nama_supplier&#10;* telp_supp&#10;* alamat_supplier" style="align=left;strokeColor=none;fillColor=none;spacingLeft=4;fontSize=12;verticalAlign=top;resizable=0;rotatable=0;part=1;fontFamily=Helvetica;fontColor=default;rounded=1;" vertex="1" parent="5">
                    <mxGeometry y="30" width="160" height="70" as="geometry"/>
                </mxCell>
                <mxCell id="7" style="edgeStyle=orthogonalEdgeStyle;shape=connector;rounded=1;html=1;exitX=0.25;exitY=0;exitDx=0;exitDy=0;entryX=0.174;entryY=0;entryDx=0;entryDy=0;entryPerimeter=0;labelBackgroundColor=default;strokeColor=default;fontFamily=Helvetica;fontSize=11;fontColor=default;endArrow=none;endFill=0;" edge="1" parent="5" source="6" target="6">
                    <mxGeometry relative="1" as="geometry"/>
                </mxCell>
                <mxCell id="8" style="edgeStyle=none;html=1;entryX=0.005;entryY=0.303;entryDx=0;entryDy=0;entryPerimeter=0;startArrow=ERoneToMany;startFill=0;endArrow=ERmandOne;endFill=0;exitX=0.996;exitY=0.13;exitDx=0;exitDy=0;exitPerimeter=0;" edge="1" parent="1" target="13">
                    <mxGeometry relative="1" as="geometry">
                        <mxPoint x="269.3599999999997" y="229" as="sourcePoint"/>
                        <mxPoint x="360" y="241.0300000000002" as="targetPoint"/>
                    </mxGeometry>
                </mxCell>
                <mxCell id="9" value="Barang" style="swimlane;childLayout=stackLayout;horizontal=1;startSize=30;horizontalStack=0;rounded=1;fontSize=14;fontStyle=0;strokeWidth=2;resizeParent=0;resizeLast=1;shadow=0;dashed=0;align=center;fontFamily=Helvetica;fontColor=default;" vertex="1" parent="1">
                    <mxGeometry x="110" y="185" width="160" height="130" as="geometry"/>
                </mxCell>
                <mxCell id="10" value="# id_barang&#10;* jenis_barang&#10;* nama_barang&#10;* harga&#10;* stok&#10;* id_supplier" style="align=left;strokeColor=none;fillColor=none;spacingLeft=4;fontSize=12;verticalAlign=top;resizable=0;rotatable=0;part=1;fontFamily=Helvetica;fontColor=default;rounded=1;" vertex="1" parent="9">
                    <mxGeometry y="30" width="160" height="100" as="geometry"/>
                </mxCell>
                <mxCell id="11" style="edgeStyle=none;html=1;exitX=1;exitY=0.25;exitDx=0;exitDy=0;startArrow=ERmandOne;startFill=0;endArrow=ERoneToMany;endFill=0;entryX=0.002;entryY=0.847;entryDx=0;entryDy=0;entryPerimeter=0;" edge="1" parent="1" source="6" target="10">
                    <mxGeometry relative="1" as="geometry">
                        <mxPoint x="120" y="300" as="targetPoint"/>
                        <Array as="points">
                            <mxPoint x="30" y="228"/>
                            <mxPoint x="30" y="300"/>
                        </Array>
                    </mxGeometry>
                </mxCell>
                <mxCell id="12" value="Â transaksi_detail" style="swimlane;childLayout=stackLayout;horizontal=1;startSize=30;horizontalStack=0;rounded=1;fontSize=14;fontStyle=0;strokeWidth=2;resizeParent=0;resizeLast=1;shadow=0;dashed=0;align=center;fontFamily=Helvetica;fontColor=default;" vertex="1" parent="1">
                    <mxGeometry x="340" y="174" width="160" height="116" as="geometry"/>
                </mxCell>
                <mxCell id="13" value="* id_transaksi&#10;* id_barang&#10;* id_supplier&#10;* subtotal&#10;* qty" style="align=left;strokeColor=none;fillColor=none;spacingLeft=4;fontSize=12;verticalAlign=top;resizable=0;rotatable=0;part=1;fontFamily=Helvetica;fontColor=default;rounded=1;" vertex="1" parent="12">
                    <mxGeometry y="30" width="160" height="86" as="geometry"/>
                </mxCell>
                <mxCell id="14" value="kasir" style="swimlane;childLayout=stackLayout;horizontal=1;startSize=30;horizontalStack=0;rounded=1;fontSize=14;fontStyle=0;strokeWidth=2;resizeParent=0;resizeLast=1;shadow=0;dashed=0;align=center;fontFamily=Helvetica;fontColor=default;" vertex="1" parent="1">
                    <mxGeometry x="890" y="430" width="160" height="130" as="geometry"/>
                </mxCell>
                <mxCell id="15" value="# id_kasir&#10;* nama_kasir&#10;* shift&#10;* alamat_kasir&#10;* telp_kasir&#10;* id_pelanggan" style="align=left;strokeColor=none;fillColor=none;spacingLeft=4;fontSize=12;verticalAlign=top;resizable=0;rotatable=0;part=1;fontFamily=Helvetica;fontColor=default;rounded=1;" vertex="1" parent="14">
                    <mxGeometry y="30" width="160" height="100" as="geometry"/>
                </mxCell>
                <mxCell id="16" value="Pelanggan" style="swimlane;childLayout=stackLayout;horizontal=1;startSize=30;horizontalStack=0;rounded=1;fontSize=14;fontStyle=0;strokeWidth=2;resizeParent=0;resizeLast=1;shadow=0;dashed=0;align=center;fontFamily=Helvetica;fontColor=default;" vertex="1" parent="1">
                    <mxGeometry x="435" y="420" width="160" height="120" as="geometry"/>
                </mxCell>
                <mxCell id="17" value="# id_pelanggan&#10;* nama_pelanggan&#10;* jenis_kelamin&#10;* telp_pelanggan&#10;* alamat_pelanggan" style="align=left;strokeColor=none;fillColor=none;spacingLeft=4;fontSize=12;verticalAlign=top;resizable=0;rotatable=0;part=1;fontFamily=Helvetica;fontColor=default;rounded=1;" vertex="1" parent="16">
                    <mxGeometry y="30" width="160" height="90" as="geometry"/>
                </mxCell>
                <mxCell id="18" style="edgeStyle=none;html=1;exitX=1;exitY=0.25;exitDx=0;exitDy=0;entryX=0.002;entryY=0.111;entryDx=0;entryDy=0;entryPerimeter=0;startArrow=ERmandOne;startFill=0;endArrow=ERmandOne;endFill=0;" edge="1" parent="1" source="13" target="3">
                    <mxGeometry relative="1" as="geometry"/>
                </mxCell>
                <mxCell id="19" style="edgeStyle=none;html=1;entryX=0.006;entryY=0.335;entryDx=0;entryDy=0;entryPerimeter=0;startArrow=ERmandOne;startFill=0;endArrow=ERoneToMany;endFill=0;exitX=1.002;exitY=0.144;exitDx=0;exitDy=0;exitPerimeter=0;" edge="1" parent="1" source="17" target="3">
                    <mxGeometry relative="1" as="geometry">
                        <Array as="points">
                            <mxPoint x="620" y="463"/>
                            <mxPoint x="620" y="250"/>
                        </Array>
                    </mxGeometry>
                </mxCell>
                <mxCell id="20" style="edgeStyle=none;html=1;entryX=-0.005;entryY=0.129;entryDx=0;entryDy=0;entryPerimeter=0;startArrow=ERoneToMany;startFill=0;endArrow=ERmandOne;endFill=0;exitX=1;exitY=0.25;exitDx=0;exitDy=0;" edge="1" parent="1" source="3" target="15">
                    <mxGeometry relative="1" as="geometry">
                        <Array as="points">
                            <mxPoint x="840" y="240"/>
                            <mxPoint x="840" y="473"/>
                        </Array>
                    </mxGeometry>
                </mxCell>
                <mxCell id="21" style="edgeStyle=none;html=1;exitX=0;exitY=0.25;exitDx=0;exitDy=0;entryX=0;entryY=0.5;entryDx=0;entryDy=0;endArrow=ERmandOne;endFill=0;startArrow=ERoneToMany;startFill=0;" edge="1" parent="1" source="6" target="13">
                    <mxGeometry relative="1" as="geometry">
                        <Array as="points">
                            <mxPoint x="-200" y="228"/>
                            <mxPoint x="-200" y="360"/>
                            <mxPoint x="310" y="360"/>
                            <mxPoint x="310" y="247"/>
                        </Array>
                    </mxGeometry>
                </mxCell>
            </root>
        </mxGraphModel>
    </diagram>
</mxfile>